<svg width="32" height="32" viewBox="0 0 32 32" fill="none" xmlns="http://www.w3.org/2000/svg">
<path d="M16 0C7.168 0 0 7.168 0 16C0 24.832 7.168 32 16 32C24.832 32 32 24.832 32 16C32 7.168 24.832 0 16 0ZM8.112 26.048C8.8 24.608 12.992 23.2 16 23.2C19.008 23.2 23.216 24.608 23.888 26.048C21.712 27.776 18.976 28.8 16 28.8C13.024 28.8 10.288 27.776 8.112 26.048ZM26.176 23.728C23.888 20.944 18.336 20 16 20C13.664 20 8.112 20.944 5.824 23.728C4.192 21.584 3.2 18.912 3.2 16C3.2 8.944 8.944 3.2 16 3.2C23.056 3.2 28.8 8.944 28.8 16C28.8 18.912 27.808 21.584 26.176 23.728ZM16 6.4C12.896 6.4 10.4 8.896 10.4 12C10.4 15.104 12.896 17.6 16 17.6C19.104 17.6 21.6 15.104 21.6 12C21.6 8.896 19.104 6.4 16 6.4ZM16 14.4C14.672 14.4 13.6 13.328 13.6 12C13.6 10.672 14.672 9.6 16 9.6C17.328 9.6 18.4 10.672 18.4 12C18.4 13.328 17.328 14.4 16 14.4Z" fill="#002F52"/>
</svg>
<svg width="36" height="24" viewBox="0 0 36 24" fill="none" xmlns="http://www.w3.org/2000/svg">
<path d="M0 24H36V20H0V24ZM0 14H36V10H0V14ZM0 0V4H36V0H0Z" fill="#002F52"/>
</svg>
<svg width="40" height="40" viewBox="0 0 40 40" fill="none" xmlns="http://www.w3.org/2000/svg">
<path d="M20.0001 1.71875L36.1487 35.8849H3.85156L20.0001 1.71875Z" fill="#FECD2F"/>
<path fill-rule="evenodd" clip-rule="evenodd" d="M10.4602 31.7672H29.5398L20 11.5835L10.4602 31.7672ZM0 34.1661L16.1486 0H23.8514L40 34.1661L36.1486 40H3.85141L0 34.1661Z" fill="url(#paint0_linear_237551_523)"/>
<defs>
<linearGradient id="paint0_linear_237551_523" x1="20" y1="0" x2="20" y2="40" gradientUnits="userSpaceOnUse">
<stop offset="0.677083" stop-color="#FD8325"/>
<stop offset="1" stop-color="#FC6621"/>
</linearGradient>
</defs>
</svg>
<svg width="38" height="38" viewBox="0 0 38 38" fill="none" xmlns="http://www.w3.org/2000/svg">
<g clip-path="url(#clip0_237551_530)">
<path d="M28.4997 9.49935H25.333C25.333 6.00018 22.4988 3.16602 18.9997 3.16602C15.5005 3.16602 12.6663 6.00018 12.6663 9.49935H9.49967C7.75801 9.49935 6.33301 10.9243 6.33301 12.666V31.666C6.33301 33.4077 7.75801 34.8327 9.49967 34.8327H28.4997C30.2413 34.8327 31.6663 33.4077 31.6663 31.666V12.666C31.6663 10.9243 30.2413 9.49935 28.4997 9.49935ZM18.9997 6.33268C20.7413 6.33268 22.1663 7.75768 22.1663 9.49935H15.833C15.833 7.75768 17.258 6.33268 18.9997 6.33268ZM28.4997 31.666H9.49967V12.666H12.6663V15.8327C12.6663 16.7035 13.3788 17.416 14.2497 17.416C15.1205 17.416 15.833 16.7035 15.833 15.8327V12.666H22.1663V15.8327C22.1663 16.7035 22.8788 17.416 23.7497 17.416C24.6205 17.416 25.333 16.7035 25.333 15.8327V12.666H28.4997V31.666Z" fill="#002F52"/>
</g>
<defs>
<clipPath id="clip0_237551_530">
<rect width="38" height="38" fill="white"/>
</clipPath>
</defs>
</svg>
<svg width="35" height="32" viewBox="0 0 35 32" fill="none" xmlns="http://www.w3.org/2000/svg">
<path d="M25.4091 0C22.3748 0 19.4626 1.41253 17.5617 3.64469C15.6609 1.41253 12.7487 0 9.71433 0C4.34321 0 0.123047 4.22016 0.123047 9.59128C0.123047 16.1831 6.0522 21.5542 15.0331 29.7155L17.5617 32L20.0903 29.6981C29.0713 21.5542 35.0004 16.1831 35.0004 9.59128C35.0004 4.22016 30.7803 0 25.4091 0ZM17.7361 27.1172L17.5617 27.2916L17.3874 27.1172C9.08653 19.6011 3.61079 14.6311 3.61079 9.59128C3.61079 6.10354 6.22659 3.48774 9.71433 3.48774C12.3999 3.48774 15.0157 5.21417 15.9399 7.60327H19.201C20.1078 5.21417 22.7236 3.48774 25.4091 3.48774C28.8969 3.48774 31.5127 6.10354 31.5127 9.59128C31.5127 14.6311 26.0369 19.6011 17.7361 27.1172Z" fill="url(#paint0_linear_237551_528)"/>
<defs>
<linearGradient id="paint0_linear_237551_528" x1="14.6957" y1="-3.84001" x2="64.9453" y2="3.41189" gradientUnits="userSpaceOnUse">
<stop stop-color="#002F52"/>
<stop offset="1" stop-color="#326589"/>
</linearGradient>
</defs>
</svg>